<?xml version="1.0" encoding="utf-8"?>
<!-- Generator: Adobe Illustrator 27.1.0, SVG Export Plug-In . SVG Version: 6.00 Build 0)  -->
<svg version="1.1" id="Capa_1" xmlns="http://www.w3.org/2000/svg" xmlns:xlink="http://www.w3.org/1999/xlink" x="0px" y="0px"
	 viewBox="0 0 300 200" style="enable-background:new 0 0 300 200;" xml:space="preserve">
<style type="text/css">
	.st0{fill:#9F252E;}
	.st1{fill:#272727;}
</style>
<path class="st0" d="M189.4,102h-18.9c-1.3,0-2.3-1-2.3-2.3v-7.2c0-1.3,1-2.3,2.3-2.3h18.9c1.3,0,2.3,1,2.3,2.3v7.2
	C191.7,101,190.7,102,189.4,102z"/>
<path class="st0" d="M218.3,102h-18.9c-1.3,0-2.3-1-2.3-2.3v-7.2c0-1.3,1-2.3,2.3-2.3h18.9c1.3,0,2.3,1,2.3,2.3v7.2
	C220.6,101,219.5,102,218.3,102z"/>
<path class="st0" d="M204.3,119.8h-18.9c-1.3,0-2.3-1-2.3-2.3v-7.2c0-1.3,1-2.3,2.3-2.3h18.9c1.3,0,2.3,1,2.3,2.3v7.2
	C206.6,118.8,205.6,119.8,204.3,119.8z"/>
<path class="st0" d="M232.9,119.8H214c-1.3,0-2.3-1-2.3-2.3v-7.2c0-1.3,1-2.3,2.3-2.3h18.9c1.3,0,2.3,1,2.3,2.3v7.2
	C235.2,118.8,234.2,119.8,232.9,119.8z"/>
<path class="st0" d="M218.3,136.9h-18.9c-1.3,0-2.3-1-2.3-2.3v-7.2c0-1.3,1-2.3,2.3-2.3h18.9c1.3,0,2.3,1,2.3,2.3v7.2
	C220.6,135.9,219.5,136.9,218.3,136.9z"/>
<path class="st0" d="M232.9,154.1H214c-1.3,0-2.3-1-2.3-2.3v-7.2c0-1.3,1-2.3,2.3-2.3h18.9c1.3,0,2.3,1,2.3,2.3v7.2
	C235.2,153,234.2,154.1,232.9,154.1z"/>
<path class="st0" d="M161.7,92.5v7.2c0,1.3-1,2.3-2.3,2.3h-6.2l-10.9-10.9c0.4-0.6,1.1-1,1.9-1h15.2
	C160.7,90.2,161.7,91.2,161.7,92.5z"/>
<path class="st0" d="M159.2,108h12.5h2.7c1.3,0,2.3,1,2.3,2.3v2.7v3.8v0.8c0,1.3-1,2.3-2.3,2.3h-0.8h-2.6"/>
<path class="st0" d="M191.7,127.4v7.2c0,0.3-0.1,0.5-0.1,0.8c-0.2,0.6-0.7,1.1-1.4,1.3c-0.2,0.1-0.5,0.2-0.8,0.2h-1.2l-11.8-11.8h13
	C190.7,125.1,191.7,126.1,191.7,127.4z"/>
<path class="st0" d="M205.2,154c1-0.2,1.7-1.2,1.7-2.2v-7.2c0-1.3-1-2.3-2.3-2.3h-11.2"/>
<polyline class="st0" points="171.8,108 159.2,108 171.1,119.8 "/>
<path class="st0" d="M207,144.5v7.2c0,1.1-0.7,2-1.7,2.2l-11.8-11.8h11.2C206,142.2,207,143.3,207,144.5z"/>
<polyline class="st0" points="161.7,98 161.8,98 161.7,98 "/>
<polygon class="st1" points="136.1,90.2 198.9,154 182.6,154.1 136.1,107.2 89.1,154 72.5,154.1 "/>
<path class="st1" d="M70.1,151c35.9-35,62.1-60.8,63.5-62.9c1.1-1.7,1.2-3.3,1.2-3.3c0-1-0.2-1.8-0.5-2.4c-6.6,0-13.2,0-19.8,0
	c-8.1,12.7-16.2,25.5-24.2,38.2c8.9-19,15.3-33,17.3-37.1c0.5-1,1.9-3.8,0.9-6.5c-0.4-1.1-1.1-1.8-1.5-2.2l-6.8-8.9l1.6-3.6h2.6
	c7.5-8.9,15-17.7,22.5-26.6c0.5-0.4,1.1-1.1,1.2-2.1c0.4-1.9-2.4-3.9-3.2-4.5c-1.5-1.1-3.4-2.5-5.3-1.8c-1.4,0.5-2.1,1.9-2.4,2.5
	l-19.2,24c-0.1,2.8-0.2,5.6-0.4,8.4c-1.5,1.1-1.6,1.3-1.6,1.3c-0.9,1.1-0.6,2.9-0.1,4.1c0.4,1,1.1,1.6,1.5,1.9
	c2.3,3.1,4.6,6.2,6.9,9.3c0,0,0.1,1.1,0.1,1.6c0,0.5-0.2,1.3-0.8,2.2c-3.7,0-7.5,0-11.2,0c-2.2,0-3.4,0.7-4.1,1.4
	c-1.4,1.3-2.2,3.9-2.2,3.9L70.1,151z"/>
<rect x="127.8" y="130.7" class="st0" width="6" height="6"/>
<rect x="137.8" y="131" class="st0" width="6" height="6"/>
<rect x="127.8" y="140.9" class="st0" width="6" height="6"/>
<rect x="137.8" y="140.9" class="st0" width="6" height="6"/>
</svg>
